<?xml version="1.0" encoding="utf-8"?>
<!-- Generator: Adobe Illustrator 16.0.0, SVG Export Plug-In . SVG Version: 6.00 Build 0)  -->
<!DOCTYPE svg PUBLIC "-//W3C//DTD SVG 1.1//EN" "http://www.w3.org/Graphics/SVG/1.1/DTD/svg11.dtd">
<svg version="1.1" xmlns="http://www.w3.org/2000/svg" xmlns:xlink="http://www.w3.org/1999/xlink" x="0px" y="0px" width="450px"
	 height="800px" viewBox="0 0 450 800" enable-background="new 0 0 450 800" xml:space="preserve">
<g id="BG" display="none">
	<rect y="204.86" display="inline" fill="#BCBEC0" width="850.39" height="595.28"/>
</g>
<g id="Sol">
	<linearGradient id="SoL_1_" gradientUnits="userSpaceOnUse" x1="-114.6196" y1="605.8774" x2="380.4998" y2="284.3468">
		<stop  offset="0" style="stop-color:#176A8B"/>
		<stop  offset="0.7679" style="stop-color:#277872"/>
	</linearGradient>
	<path id="SoL" fill="url(#SoL_1_)" d="M416.566,556.002c-2.6-2.217-4.745-5.021-7.579-6.303
		c-19.202-8.668-38.547-17.018-57.855-25.451c-0.513-0.223-1.12-0.229-2.167-0.43c-1.655,3.209-3.347,6.49-5.208,10.098
		c-1.862-0.707-3.588-1.363-5.681-2.158c-6.01,8.586-11.956,17.076-17.678,25.25c-7.13-5.646-13.91-11.01-20.688-16.381
		c-0.462-0.367-1.14-0.668-1.327-1.148c-4.812-12.393-10.931-24.484-13.934-37.307c-2.648-11.307-3.461-23.036-10.186-32.905
		c-2.832-4.156-6.298-8.44-10.496-10.978c-6.606-3.99-13.03-7.7-16.437-15.03c-1.123-2.417-2.922-4.606-3.618-7.118
		c-2.415-8.724-4.716-17.497-6.543-26.356c-0.586-2.844-0.3-6.347,0.882-8.965c1.814-4.021,2.3-7.593,0.932-11.846
		c-2.167-6.735-3.881-13.624-5.541-20.508c-0.704-2.924-0.941-5.634,3.51-6.568c1.462-0.306,3.274-4.144,3.054-6.161
		c-0.417-3.812-2.248-7.458-3.388-11.204c-1.658-5.448,0.768-9.165,6.282-9.498c14.146-0.856,27.913-2.433,42.061-3.278
		c0,0,0,0,8.145-1.017c-17.331-2.23-34.662-4.458-52.528-6.757c-0.173-2.972-0.351-6.017-0.569-9.76
		c17.222-6.297,34.445-12.595,51.668-18.894c0,0,6.472-2.022,6.381-2.366c-8.951,1.873-24.559,5.074-33.507,6.96
		c-6.551,1.379-13.221,2.378-19.605,4.31c-5.255,1.59-8.575,0.147-11.306-4.237c-1.127-1.811-2.703-3.342-3.788-4.654
		c11.214-11.881,22.247-23.57,33.138-35.109c-0.789,0.395-2.065,0.87-3.167,1.608c-11.135,7.456-22.411,14.72-33.277,22.551
		c-4.737,3.413-9.047,4.828-14.532,2.325c-2.635-1.202-5.592-1.695-8.859-2.64v-46.549c-0.249-5.02,0,0.319-0.249-5.02
		c-2.22,9.235-5.596,23.285-7.805,32.524c-0.319,1.338-0.521,2.706-0.834,4.047c-3.433,14.732-3.396,14.923-18.003,17.917
		c-2.552,0.523-6.202-0.559-8.305-2.219c-10.21-8.056-20.061-16.567-30.057-24.896c0,0,0,0-3.335-2.236
		c8.128,11.691,16.034,24.633,24.437,36.721c-5.962,6.211-10.752,13.165-21.417,11.178c-8.83-1.645-17.985-1.555-27.129-2.244
		c-0.593-31.778-8.042-62.081-12.497-92.814c-1.884-13.012-0.002-26.65,0.87-39.957c0.799-12.208,2.318-24.382-0.857-36.421
		c-0.833-3.159-2.282-6.367-4.221-8.979c-4.229-5.693-5.877-11.112-1.617-17.658c1.318-2.026,0.924-5.167,1.374-8.207
		c3.347-0.941,7.845-1.206,11.071-3.366c4-2.68,7.007-6.878,10.281-10.564c0.472-0.532,0.145-1.882,0.011-2.828
		c-0.807-5.703-2.185-11.387-2.325-17.103c-0.093-3.826-1.44-5.389-4.799-5.952c-6.569-1.103-13.142-2.191-19.983-3.331
		c-1.106-5.46-0.945-10.096,3.816-14.672c6.509-6.257,6.41-14.364,3.313-22.543c-1.522-4.021-2.843-8.123-4.146-12.222
		c-1.667-5.25-3.29-5.6-7.778-2.09c-3.858,3.018-7.998,5.677-12.156,8.594c-2.937-1.206-6.464-2.656-9.991-4.104
		C60.312,9.261,59.8,9.44,59.288,9.619c3.673,6.619,1.705,11.395-2.54,16.654c-4.26,5.276-2.51,11.864,1.521,16.996
		c3.107,3.953,3.291,7.718,1.923,11.31c-7.053,2.257-13.615,4.237-20.086,6.476c-3.327,1.151-4.484,3.657-4.626,7.337
		c-0.176,4.569-1.804,9.079-2.034,13.654c-0.124,2.463,0.689,5.602,2.266,7.389c3.041,3.446,6.922,6.151,9.453,8.308
		c2.122,6.42,3.988,12.097,5.891,17.762c0.183,0.545,0.839,1.001,0.865,1.518c0.537,10.945,0.875,21.902,1.578,32.835
		c0.26,4.042,0.852,8.207,2.198,11.995c1.57,4.418,4.276,8.42,6.201,12.731c0.93,2.081,1.739,4.469,1.683,6.695
		c-0.557,21.997-1.653,43.984-1.897,65.982c-0.209,18.902,0.69,37.609,6.834,56.009c2.963,8.875,2.05,19.1,2.429,28.733
		c0.067,1.707-1.957,3.669-3.334,5.233c-15.113,17.148-22.685,37.279-22.622,59.974c0.035,12.649,3.814,24.149,12.87,33.986
		c2.44,2.652,2.313,9.602,0.77,13.57c-2.947,7.575-2.374,13.22,4.063,18.305c2.14,1.689,3.783,4.008,5.65,6.041
		c6.326,6.885,7.421,12.559,3.189,20.979c-1.575,3.132-1.681,5.352,0.605,7.916c2.484,2.786,2.145,5.476-0.153,8.451
		c-5.767,7.469-7.02,15.41-1.015,23.367c4.727,6.262,11.079,11.662,14.345,18.562c3.25,6.867,1.848,16.111,5.557,22.541
		c5.222,9.053,2.637,14.453-2.843,21.875c-11.712,15.857-22.024,32.736-24.705,52.941c-0.383,2.891-0.402,5.924,0.01,8.807
		c1.374,9.598,6.987,14.242,16.728,13.471c4.993-0.396,9.906-1.779,15.984-2.93c-1.698,13.719,3.491,27.324-4.823,40.311
		c-5.477,8.553-9.068,18.312-13.483,27.541c-1.659,3.469-2.08,6.564,1.922,9.014c1.611,0.982,2.613,2.92,4.011,4.307
		c4.409,4.371,5.49,8.994,3.646,15.322c-3.357,11.51-1.273,23.006,3.286,34.975l0,0c0.077,0.377,0.171,0.619,0.237,1
		c80.975,0.006,161.049,0.152,242.023,0.154h1.382c0.031-0.504-0.112-1.01-0.059-1.516l0,0c-2.842-23.199-5.682-46.373-8.565-69.904
		c11.071-2.359,13.765-10.949,14.986-19.514c1.585-11.119,5.064-21.326,10.383-31.086c1.88-3.449,3.467-7.078,4.963-10.717
		c3.364-8.178,7.389-14.801,16.388-19.098c7.195-3.436,12.615-10.982,18.214-17.246c5.756-6.443,10.646-13.652,16.158-20.324
		c4.774-5.779,5.124-11.414-0.174-16.803c-4.1-4.168-4.615-7.736-0.401-12.041c2.035-2.08,4.114-4.484,5.083-7.139
		c0.96-2.639,0.553-5.777,0.745-8.695c-0.558-0.141-1.114-0.283-1.672-0.426C412.192,561.024,414.094,558.842,416.566,556.002z
		 M111.24,310.312c10.534,1.524,20.395,2.95,30.161,4.362c-0.054,7.185-3.125,9.558-9.791,9.524
		C118.083,324.127,114.249,322.023,111.24,310.312z M136.955,369.524c-1.298,1.549-3.118,2.659-5.178,4.37
		c-1.833-13.743-3.546-26.592-5.372-40.275c1.977,0,4.539-0.194,7.05,0.077c1.378,0.149,3.171,0.713,3.922,1.725
		C144.792,345.41,144.581,360.424,136.955,369.524z"/>
	<text transform="matrix(1 0 0 1 352 470.8599)" display="none" font-family="'SFProText-Bold'" font-size="85">LiberiOS</text>
</g>
</svg>
