<?xml version="1.0" encoding="utf-8"?>
<!-- Generator: Adobe Illustrator 16.0.0, SVG Export Plug-In . SVG Version: 6.00 Build 0)  -->
<!DOCTYPE svg PUBLIC "-//W3C//DTD SVG 1.1//EN" "http://www.w3.org/Graphics/SVG/1.1/DTD/svg11.dtd">
<svg version="1.1" xmlns="http://www.w3.org/2000/svg" xmlns:xlink="http://www.w3.org/1999/xlink" x="0px" y="0px"
	 width="330.595px" height="600.446px" viewBox="0 0 330.595 600.446" enable-background="new 0 0 330.595 600.446"
	 xml:space="preserve">
<g id="BG" display="none">
	<rect y="204.86" display="inline" fill="#BCBEC0" width="850.39" height="595.28"/>
</g>
<g id="Sol">
	<path id="SoL" fill="#FFFFFF" d="M310.571,417.268c-1.948-1.662-3.556-3.764-5.68-4.724c-14.391-6.497-28.889-12.754-43.359-19.074
		c-0.384-0.167-0.84-0.171-1.625-0.322c-1.24,2.405-2.508,4.864-3.903,7.568c-1.396-0.53-2.689-1.022-4.258-1.618
		c-4.504,6.435-8.96,12.798-13.249,18.923c-5.344-4.231-10.425-8.251-15.504-12.276c-0.347-0.275-0.854-0.5-0.994-0.861
		c-3.607-9.288-8.192-18.35-10.443-27.959c-1.985-8.474-2.594-17.265-7.634-24.661c-2.123-3.115-4.72-6.326-7.866-8.228
		c-4.951-2.99-9.766-5.771-12.318-11.264c-0.842-1.811-2.19-3.452-2.711-5.334c-1.81-6.539-3.535-13.113-4.904-19.752
		c-0.439-2.131-0.225-4.757,0.661-6.719c1.36-3.014,1.724-5.69,0.698-8.878c-1.624-5.048-2.909-10.21-4.153-15.37
		c-0.528-2.191-0.705-4.223,2.631-4.922c1.096-0.229,2.454-3.105,2.289-4.617c-0.313-2.857-1.685-5.589-2.54-8.396
		c-1.242-4.083,0.575-6.869,4.708-7.119c10.602-0.642,20.919-1.823,31.522-2.457c0,0,0,0,6.104-0.763
		c-12.988-1.671-25.977-3.341-39.367-5.064c-0.13-2.228-0.263-4.509-0.426-7.314c12.907-4.719,25.814-9.439,38.722-14.16
		c0,0,4.851-1.516,4.783-1.773c-6.708,1.404-18.405,3.803-25.112,5.216c-4.909,1.034-9.908,1.783-14.693,3.23
		c-3.938,1.192-6.426,0.11-8.473-3.175c-0.845-1.357-2.026-2.505-2.839-3.488c8.405-8.904,16.673-17.665,24.835-26.312
		c-0.591,0.295-1.547,0.652-2.374,1.205c-8.345,5.588-16.795,11.032-24.939,16.9c-3.55,2.558-6.78,3.618-10.891,1.743
		c-1.975-0.901-4.191-1.27-6.639-1.979v-34.886c-0.187-3.762,0,0.239-0.187-3.762c-1.664,6.921-4.194,17.451-5.849,24.375
		c-0.24,1.003-0.391,2.028-0.625,3.033c-2.572,11.041-2.545,11.185-13.492,13.428c-1.913,0.392-4.648-0.418-6.224-1.663
		c-7.652-6.038-15.035-12.417-22.526-18.658c0,0,0,0-2.5-1.676c6.092,8.762,12.017,18.461,18.314,27.521
		c-4.469,4.655-8.058,9.866-16.051,8.377c-6.618-1.233-13.479-1.166-20.332-1.682c-0.444-23.816-6.027-46.526-9.366-69.559
		c-1.412-9.752-0.001-19.973,0.652-29.946c0.599-9.149,1.737-18.273-0.642-27.296c-0.625-2.367-1.71-4.772-3.164-6.729
		c-3.169-4.267-4.405-8.328-1.212-13.234c0.988-1.519,0.692-3.873,1.03-6.151c2.508-0.706,5.879-0.903,8.297-2.523
		c2.998-2.008,5.251-5.155,7.705-7.917c0.354-0.399,0.108-1.41,0.008-2.12c-0.604-4.274-1.638-8.534-1.742-12.817
		c-0.07-2.867-1.079-4.039-3.597-4.461c-4.923-0.826-9.85-1.642-14.976-2.496c-0.83-4.092-0.708-7.566,2.86-10.996
		c4.878-4.689,4.804-10.765,2.483-16.895c-1.141-3.014-2.131-6.087-3.107-9.16c-1.25-3.935-2.465-4.197-5.829-1.566
		c-2.892,2.262-5.994,4.254-9.11,6.441c-2.201-0.904-4.845-1.991-7.488-3.076c-0.384,0.133-0.767,0.268-1.151,0.401
		c2.753,4.96,1.278,8.54-1.903,12.481c-3.192,3.955-1.881,8.892,1.14,12.737c2.329,2.962,2.466,5.785,1.441,8.476
		c-5.286,1.691-10.204,3.175-15.054,4.853c-2.494,0.862-3.361,2.74-3.467,5.499c-0.132,3.424-1.352,6.804-1.524,10.233
		c-0.093,1.846,0.516,4.198,1.698,5.538c2.279,2.583,5.188,4.61,7.084,6.226c1.59,4.812,2.989,9.066,4.415,13.312
		c0.137,0.409,0.629,0.75,0.648,1.137c0.402,8.203,0.655,16.415,1.182,24.608c0.195,3.029,0.638,6.15,1.647,8.989
		c1.177,3.311,3.205,6.31,4.647,9.541c0.697,1.56,1.303,3.35,1.261,5.018c-0.417,16.485-1.239,32.964-1.421,49.45
		c-0.157,14.167,0.517,28.186,5.122,41.976c2.221,6.652,1.536,14.314,1.82,21.534c0.051,1.279-1.466,2.75-2.499,3.922
		c-11.326,12.852-17,27.939-16.954,44.947c0.026,9.479,2.858,18.098,9.645,25.47c1.829,1.988,1.734,7.196,0.577,10.17
		c-2.209,5.677-1.779,9.908,3.045,13.719c1.604,1.266,2.835,3.004,4.234,4.527c4.741,5.16,5.562,9.412,2.39,15.722
		c-1.18,2.348-1.26,4.011,0.454,5.932c1.861,2.088,1.607,4.104-0.115,6.334c-4.322,5.597-5.261,11.549-0.761,17.512
		c3.542,4.693,8.303,8.74,10.751,13.912c2.436,5.146,1.385,12.075,4.165,16.894c3.913,6.784,1.976,10.832-2.131,16.394
		c-8.778,11.884-16.506,24.534-18.515,39.677c-0.288,2.167-0.301,4.439,0.007,6.6c1.029,7.193,5.236,10.674,12.537,10.096
		c3.742-0.297,7.424-1.333,11.979-2.196c-1.272,10.281,2.616,20.479-3.615,30.211c-4.104,6.409-6.796,13.724-10.105,20.641
		c-1.243,2.6-1.558,4.919,1.441,6.755c1.207,0.736,1.958,2.188,3.006,3.228c3.305,3.276,4.115,6.74,2.732,11.483
		c-2.516,8.626-0.954,17.241,2.462,26.212l0,0c0.058,0.282,0.128,0.464,0.178,0.749c60.687,0.005,120.697,0.114,181.383,0.115h1.036
		c0.023-0.377-0.083-0.757-0.044-1.136l0,0c-2.13-17.387-4.259-34.754-6.419-52.39c8.297-1.768,10.316-8.205,11.231-14.624
		c1.188-8.333,3.795-15.983,7.782-23.297c1.409-2.586,2.599-5.305,3.72-8.032c2.521-6.129,5.538-11.092,12.282-14.312
		c5.392-2.575,9.455-8.231,13.651-12.925c4.314-4.829,7.979-10.231,12.109-15.232c3.578-4.331,3.84-8.554-0.131-12.593
		c-3.072-3.124-3.458-5.798-0.301-9.024c1.525-1.559,3.083-3.361,3.809-5.35c0.719-1.978,0.414-4.33,0.559-6.517
		c-0.418-0.105-0.835-0.212-1.253-0.319C307.293,421.031,308.718,419.396,310.571,417.268z M81.746,233.136
		c7.895,1.142,15.285,2.21,22.604,3.269c-0.04,5.385-2.342,7.163-7.337,7.138C86.874,243.49,84,241.913,81.746,233.136z
		 M101.017,277.512c-0.973,1.161-2.336,1.993-3.88,3.275c-1.374-10.3-2.658-19.93-4.026-30.184c1.481,0,3.402-0.146,5.284,0.058
		c1.033,0.112,2.376,0.534,2.939,1.293C106.891,259.44,106.732,270.692,101.017,277.512z"/>
	<text transform="matrix(1 0 0 1 352 470.8599)" display="none" font-family="'SFProText-Bold'" font-size="85">LiberiOS</text>
</g>
</svg>
